<svg width="20" height="20" viewBox="0 0 20 20" fill="none" xmlns="http://www.w3.org/2000/svg">
<path d="M16 0C18.2091 0 20 1.79086 20 4V16C20 18.2091 18.2091 20 16 20H4C1.79086 20 3.22133e-08 18.2091 0 16V4C0 1.79086 1.79086 3.22128e-08 4 0H16ZM10 4C9.45802 3.99991 8.99981 4.46757 9 5.00879V9L5.00781 9.00098C4.45119 9.00106 3.99998 9.44827 4 10C3.99991 10.542 4.46757 11.0002 5.00879 11H9V14.9912C8.99973 15.5382 9.46342 16.0003 10 16C10.5366 16.0003 11.0002 15.5381 11 14.9912V11H14.9912C15.5382 11.0003 16.0003 10.5366 16 10C16.0003 9.46345 15.5381 8.9998 14.9912 9H10.999V5.00781C10.9989 4.45119 10.5517 3.99998 10 4Z" fill="#D8EBFF"/>
</svg>
