<svg width="20" height="20" viewBox="0 0 20 20" fill="none" xmlns="http://www.w3.org/2000/svg">
<path d="M16 0C18.2091 0 20 1.79086 20 4V16C20 18.2091 18.2091 20 16 20H4C1.79086 20 3.22133e-08 18.2091 0 16V4C0 1.79086 1.79086 3.22128e-08 4 0H16ZM14.999 5.5C14.8677 5.5 14.7375 5.52592 14.6162 5.57617C14.4948 5.62649 14.3839 5.70001 14.291 5.79297L8 12.0859L5.70703 9.79297C5.51942 9.60537 5.26532 9.50001 5 9.5C4.73467 9.5 4.48059 9.60536 4.29297 9.79297C4.10535 9.98058 4 10.2347 4 10.5C4.00002 10.7653 4.10537 11.0194 4.29297 11.207L7.29199 14.207C7.38485 14.3 7.49582 14.3735 7.61719 14.4238C7.73845 14.474 7.86875 14.5 8 14.5C8.13127 14.5 8.26154 14.4741 8.38281 14.4238C8.50404 14.3735 8.61426 14.2999 8.70703 14.207L15.7061 7.20801C15.7989 7.11526 15.8725 7.005 15.9229 6.88379C15.9731 6.76252 16 6.63225 16 6.50098C16 6.36966 15.9731 6.23948 15.9229 6.11816C15.8725 5.99679 15.799 5.88583 15.7061 5.79297C15.6133 5.70014 15.5031 5.62644 15.3818 5.57617C15.2605 5.52588 15.1304 5.50002 14.999 5.5Z" fill="#009F24"/>
</svg>
