<svg width="393" height="43" viewBox="0 0 393 43" fill="none" xmlns="http://www.w3.org/2000/svg">
<path d="M11.1556 38.16C4.79562 38.16 0.915619 34.08 0.915619 29.52C0.915619 25 4.39562 21.4 8.99562 21.4C12.3156 21.4 14.4756 23.32 14.4756 25.48C14.4756 26.96 13.5556 28.04 12.1156 28.08C9.83562 28.08 10.3556 24.88 7.71562 24.88C5.63562 24.88 3.63562 26.6 3.63562 29.32C3.63562 32.44 6.43562 35.32 10.9956 35.32C17.7956 35.32 22.8356 29.12 23.9956 19.84L25.4356 8.32C25.7156 6 25.9556 4.2 24.9156 4.08C16.8356 4.16 12.9156 6.72 12.9156 9.92C12.9156 11.68 14.0356 12.56 15.1556 12.56C16.3156 12.56 16.5156 11.68 17.5156 11.68C18.7156 11.68 19.4756 12.6 19.4756 13.6C19.4756 15.56 17.5956 16.8 15.3956 16.8C12.4756 16.8 9.67562 14.64 9.67562 10.76C9.67562 5.08 15.5156 2.52 22.2356 1.76C24.1556 1.56 26.6756 1.4 28.7156 1.4C32.1156 1.4 34.1156 1.8 34.1156 2.88C34.1156 3.76 33.1156 4.08 31.1956 4.2C30.7156 4.36 30.3556 6.56 30.1156 8.44L29.4356 13.8C29.5556 14.28 29.7556 14.32 30.8356 14.32H41.5156C42.5556 14.32 42.7556 14.28 42.9956 13.8L43.6356 8.4C43.8756 6.28 44.1556 4.44 43.6756 4.2C41.7956 4.04 40.9956 3.72 40.9956 3.08C40.9956 1.84 43.2356 1.4 46.8756 1.4C50.3556 1.4 52.2756 1.76 52.2756 2.84C52.2756 3.68 51.3956 4.04 49.3556 4.2C48.8756 4.4 48.5156 6.16 48.2756 8.4L46.4756 23.28C46.1956 25.48 46.0356 27.24 46.4356 27.44C48.3556 27.56 49.1156 27.88 49.1156 28.56C49.1156 29.8 46.9956 30.24 43.3956 30.24C39.8356 30.24 37.8756 29.88 37.8756 28.76C37.8756 27.92 38.8356 27.6 40.7956 27.44C41.3156 27.32 41.5556 25.32 41.8356 23.28L42.7956 15.32L42.5156 17.56C42.4356 17.04 42.2756 16.96 41.1956 16.96H30.5156C29.4756 16.96 29.1956 17 28.9956 17.56L29.1556 16.12L28.7156 19.72C27.3956 30.44 19.9956 38.16 11.1556 38.16ZM59.7531 30.64C54.3131 30.64 50.5531 26.92 50.5531 21.32C50.5531 14.64 55.6731 9.6 62.0731 9.6C67.5531 9.6 71.3131 13.36 71.3131 18.92C71.3131 25.52 66.2731 30.64 59.7531 30.64ZM55.1131 22.04C55.1131 26 56.9531 28.48 59.9931 28.48C63.9531 28.48 66.7531 23.32 66.7531 18.24C66.7531 14.2 64.8331 11.76 61.7931 11.76C57.8331 11.76 55.1131 17.04 55.1131 22.04ZM100.446 30.36C99.5656 30.36 99.0056 29.8 99.0056 28.92C99.0056 28.44 99.2456 27.04 99.6856 23.32L100.246 18.92C100.326 18.16 100.406 17.2 100.406 16.6C100.406 14.48 99.6456 12.84 97.6056 12.84C95.3256 12.84 92.4856 15.04 91.9256 20.16L90.8856 28.6C90.7256 29.76 89.9656 30.24 88.3656 30.24C87.0856 30.24 86.5656 29.76 86.5656 28.76C86.5656 28.4 86.6856 27.56 86.8456 26.12L87.7656 18.92C87.8856 18.16 87.9256 17.2 87.9256 16.6C87.9256 14.48 87.1656 12.84 85.1656 12.84C82.8856 12.84 80.0056 15.12 79.4456 20.24L78.4456 28.6C78.2856 29.76 77.4456 30.24 75.8856 30.24C74.6456 30.24 74.0856 29.76 74.0856 28.76C74.0856 28.4 74.2456 27.56 74.4056 26.12L75.4456 17.84C75.6456 16.12 75.8056 13.52 75.2856 13.28C73.7256 13.24 72.9656 12.96 72.9656 12.32C72.9656 11.84 73.4056 11.52 73.9256 11.24C75.3256 10.48 78.0856 9.96 79.0456 9.96C79.8856 9.96 80.4056 10.6 80.4056 11.36C80.4056 11.68 80.3256 12.32 80.0856 14.44C81.6456 11.4 84.4056 9.72 87.3256 9.72C90.1656 9.72 92.0056 11.4 92.3256 14.56C93.9256 11.44 96.7656 9.72 99.8056 9.72C102.926 9.72 104.846 11.72 104.846 15.52C104.846 16.28 104.806 16.96 104.766 17.4L104.126 22.4C103.926 24.24 103.686 26.68 104.246 27C105.846 27.08 106.526 27.32 106.526 27.96C106.526 28.52 106.046 28.84 105.566 29.08C104.246 29.76 101.566 30.36 100.446 30.36ZM117.255 30.64C111.815 30.64 108.055 26.92 108.055 21.32C108.055 14.64 113.175 9.6 119.575 9.6C125.055 9.6 128.815 13.36 128.815 18.92C128.815 25.52 123.775 30.64 117.255 30.64ZM112.615 22.04C112.615 26 114.455 28.48 117.495 28.48C121.455 28.48 124.255 23.32 124.255 18.24C124.255 14.2 122.335 11.76 119.295 11.76C115.335 11.76 112.615 17.04 112.615 22.04ZM145.907 30.36C145.027 30.36 144.467 29.8 144.467 28.92C144.467 28.44 144.707 27.04 145.147 23.32L145.707 18.92C145.787 18.16 145.867 17.28 145.867 16.6C145.867 14.48 145.107 12.84 142.947 12.84C140.547 12.84 137.547 15.12 136.947 20.24L135.947 28.6C135.787 29.76 134.947 30.24 133.387 30.24C132.147 30.24 131.587 29.76 131.587 28.76C131.587 28.4 131.747 27.56 131.907 26.12L132.947 17.84C133.147 16.08 133.307 13.48 132.787 13.28C131.227 13.24 130.467 12.96 130.467 12.32C130.467 11.84 130.907 11.52 131.427 11.24C132.827 10.48 135.587 9.96 136.547 9.96C137.387 9.96 137.907 10.6 137.907 11.36C137.907 11.68 137.827 12.36 137.547 14.56C139.187 11.48 142.027 9.72 145.107 9.72C148.347 9.72 150.347 11.72 150.347 15.52C150.347 16.28 150.267 16.96 150.227 17.4L149.587 22.4C149.387 24.28 149.147 26.68 149.707 27C151.307 27.08 151.987 27.32 151.987 27.96C151.987 28.52 151.507 28.84 151.027 29.08C149.707 29.76 147.027 30.36 145.907 30.36ZM148.818 42.92C143.618 42.92 140.538 40.04 140.538 36.96C140.538 35.24 141.538 34.2 142.938 34.2C144.498 34.2 145.138 35.6 145.258 37C145.378 38.68 145.898 40.56 149.338 40.56C153.018 40.56 157.138 38.24 159.698 35.4C160.618 34.4 161.498 33.16 161.618 31.56C161.858 28.44 158.658 19.88 156.578 16.16C156.018 15.08 155.658 14.6 155.218 14.44C154.418 14.76 153.738 15.12 153.098 15.12C152.618 15.12 152.258 14.84 152.258 14.4C152.258 13.96 152.538 13.6 152.818 13.24C153.778 12.2 156.418 10.04 157.778 10.04C158.418 10.04 158.858 10.56 159.338 11.32C161.218 14.16 164.538 22.28 165.418 28.52C167.298 25.12 169.018 20.6 169.018 17.48C169.018 14.24 167.138 14.08 167.098 12.12C167.058 10.84 168.018 9.84 169.338 9.84C170.898 9.84 172.058 11.04 172.058 14.28C172.058 22.04 167.178 31.8 161.218 37.24C157.698 40.56 153.258 42.92 148.818 42.92ZM201.66 30.36C200.78 30.36 200.22 29.8 200.22 28.92C200.22 28.44 200.46 27.04 200.9 23.32L201.46 18.92C201.54 18.16 201.62 17.2 201.62 16.6C201.62 14.48 200.86 12.84 198.82 12.84C196.54 12.84 193.7 15.04 193.14 20.16L192.1 28.6C191.94 29.76 191.18 30.24 189.58 30.24C188.3 30.24 187.78 29.76 187.78 28.76C187.78 28.4 187.9 27.56 188.06 26.12L188.98 18.92C189.1 18.16 189.14 17.2 189.14 16.6C189.14 14.48 188.38 12.84 186.38 12.84C184.1 12.84 181.22 15.12 180.66 20.24L179.66 28.6C179.5 29.76 178.66 30.24 177.1 30.24C175.86 30.24 175.3 29.76 175.3 28.76C175.3 28.4 175.46 27.56 175.62 26.12L176.66 17.84C176.86 16.12 177.02 13.52 176.5 13.28C174.94 13.24 174.18 12.96 174.18 12.32C174.18 11.84 174.62 11.52 175.14 11.24C176.54 10.48 179.3 9.96 180.26 9.96C181.1 9.96 181.62 10.6 181.62 11.36C181.62 11.68 181.54 12.32 181.3 14.44C182.86 11.4 185.62 9.72 188.54 9.72C191.38 9.72 193.22 11.4 193.54 14.56C195.14 11.44 197.98 9.72 201.02 9.72C204.14 9.72 206.06 11.72 206.06 15.52C206.06 16.28 206.02 16.96 205.98 17.4L205.34 22.4C205.14 24.24 204.9 26.68 205.46 27C207.06 27.08 207.74 27.32 207.74 27.96C207.74 28.52 207.26 28.84 206.78 29.08C205.46 29.76 202.78 30.36 201.66 30.36ZM246.153 30.64C239.233 30.64 234.193 25.52 234.193 18.04C234.193 14.36 235.433 10.92 237.473 8.12C234.793 6.44 232.033 5.08 228.753 5.08C223.593 5.08 219.993 8.36 219.993 12.92C219.993 16.24 222.033 17.64 223.833 17.64C225.073 17.64 225.753 16.88 226.273 15.92C226.593 15.36 227.193 14.16 228.633 14.16C229.953 14.16 230.793 15.12 230.793 16.52C230.793 18.96 228.033 20.96 224.753 20.96C220.993 20.96 217.233 18.28 217.233 13.08C217.233 6.92 222.073 2.64 228.633 2.56C232.633 2.52 235.993 4.2 239.113 6.12C242.193 3 246.473 0.999999 251.033 0.999999C256.313 0.999999 260.393 3.52 260.393 7.96C260.393 12.12 256.793 14.6 252.113 14.6C247.833 14.6 244.473 12.72 241.273 10.6C240.033 12.8 239.313 15.32 239.313 17.8C239.313 23 242.393 27.36 247.833 27.36C250.953 27.36 253.873 25.72 255.473 23.36C256.473 21.96 257.153 20.16 258.073 20.16C258.673 20.16 259.033 20.68 259.033 21.68C259.033 24.36 256.753 29.48 254.993 29.48C254.433 29.48 254.033 29.12 253.993 28.4C251.873 29.72 249.033 30.64 246.153 30.64ZM242.713 8.48C245.753 10.4 248.753 12.08 252.153 12.08C255.273 12.08 257.473 10.68 257.473 8.12C257.473 5.2 254.593 3.8 251.593 3.8C248.153 3.8 244.993 5.68 242.713 8.48ZM269.955 30.64C264.515 30.64 260.755 26.92 260.755 21.32C260.755 14.64 265.875 9.6 272.275 9.6C277.755 9.6 281.515 13.36 281.515 18.92C281.515 25.52 276.475 30.64 269.955 30.64ZM265.315 22.04C265.315 26 267.155 28.48 270.195 28.48C274.155 28.48 276.955 23.32 276.955 18.24C276.955 14.2 275.035 11.76 271.995 11.76C268.035 11.76 265.315 17.04 265.315 22.04ZM284.967 30.36C284.087 30.36 283.607 29.8 283.607 28.92C283.607 28.48 283.727 27.64 284.327 22.64L286.087 8.56C286.287 6.8 286.407 4.28 285.967 4.12C284.287 4.04 283.447 3.64 283.447 3C283.447 2.48 283.927 2.2 284.407 1.96C285.887 1.24 288.687 0.639999 289.647 0.639999C290.607 0.639999 291.167 1.2 291.167 2.12C291.167 2.56 291.047 3.32 290.447 8.28L288.687 22.44C288.487 24.16 288.247 26.64 288.727 26.96C290.367 27.04 291.047 27.32 291.047 27.96C291.047 28.52 290.607 28.84 290.127 29.08C288.807 29.8 286.047 30.36 284.967 30.36ZM295.066 30.36C294.186 30.36 293.706 29.8 293.706 28.92C293.706 28.48 293.826 27.64 294.426 22.64L296.186 8.56C296.386 6.8 296.506 4.28 296.066 4.12C294.386 4.04 293.546 3.64 293.546 3C293.546 2.48 294.026 2.2 294.506 1.96C295.986 1.24 298.786 0.639999 299.746 0.639999C300.706 0.639999 301.266 1.2 301.266 2.12C301.266 2.56 301.146 3.32 300.546 8.28L298.786 22.44C298.586 24.16 298.346 26.64 298.826 26.96C300.466 27.04 301.146 27.32 301.146 27.96C301.146 28.52 300.706 28.84 300.226 29.08C298.906 29.8 296.146 30.36 295.066 30.36ZM311.084 30.64C306.084 30.64 302.924 27.16 302.924 22C302.924 15.56 307.844 9.64 314.164 9.64C318.004 9.64 320.204 11.76 320.204 14.28C320.204 17.6 316.564 20.4 308.964 21.36L307.084 21.64C307.524 24.88 309.604 26.88 312.804 26.88C315.524 26.88 317.284 25.28 318.444 24.24C318.924 23.8 319.244 23.56 319.644 23.56C320.044 23.56 320.324 23.88 320.324 24.4C320.324 25.12 319.724 26.2 318.724 27.24C317.244 28.88 314.564 30.64 311.084 30.64ZM307.004 19.8L308.164 19.6C313.884 18.72 316.484 16.6 316.484 14.28C316.484 12.88 315.364 11.88 313.564 11.88C310.284 11.88 307.244 15.4 307.004 19.8ZM329.738 30.64C324.938 30.64 321.618 27.04 321.618 21.68C321.618 15.12 326.458 9.6 332.378 9.6C336.458 9.6 339.418 12.24 339.418 15.08C339.418 16.56 338.618 17.56 337.378 17.56C335.978 17.56 335.458 16.28 335.018 14.68C334.418 12.92 333.338 11.84 331.738 11.84C328.578 11.84 325.938 15.16 325.938 19.96C325.938 24.24 328.098 26.84 331.538 26.84C334.058 26.84 335.698 25.24 337.018 24.04C337.498 23.52 337.818 23.2 338.258 23.2C338.698 23.2 338.978 23.56 338.978 24.04C338.978 24.92 338.178 26.2 337.178 27.28C335.698 28.92 333.058 30.64 329.738 30.64ZM346.989 30.36C344.149 30.36 342.309 28.88 342.309 26.24C342.309 25.76 342.389 25.04 342.469 24.4L343.829 12.96H342.589C341.589 12.96 340.749 12.84 340.749 12.04C340.749 10.68 341.829 10.52 342.869 10.52H344.149L344.389 8.44C344.549 7.32 345.349 6.84 346.949 6.84C348.189 6.84 348.749 7.28 348.749 8.28C348.749 8.6 348.629 9.56 348.509 10.24L348.469 10.52H353.669C354.629 10.52 355.509 10.56 355.509 11.44C355.509 12.76 354.429 12.96 353.349 12.96H348.189L346.949 22.8C346.869 23.44 346.789 24.24 346.789 24.72C346.789 26.16 347.309 27.08 348.949 27.08C351.109 27.08 352.549 25.36 353.349 25.36C353.869 25.36 354.149 25.68 354.149 26.12C354.149 27.52 350.909 30.36 346.989 30.36ZM363.905 30.64C358.465 30.64 354.705 26.92 354.705 21.32C354.705 14.64 359.825 9.6 366.225 9.6C371.705 9.6 375.465 13.36 375.465 18.92C375.465 25.52 370.425 30.64 363.905 30.64ZM359.265 22.04C359.265 26 361.105 28.48 364.145 28.48C368.105 28.48 370.905 23.32 370.905 18.24C370.905 14.2 368.985 11.76 365.945 11.76C361.985 11.76 359.265 17.04 359.265 22.04ZM380.037 30.24C378.797 30.24 378.237 29.76 378.237 28.76C378.237 28.4 378.397 27.56 378.557 26.12L379.597 17.84C379.797 16.12 379.957 13.48 379.437 13.28C377.877 13.24 377.117 12.96 377.117 12.32C377.117 11.84 377.557 11.52 378.077 11.24C379.477 10.52 382.117 9.96 383.077 9.96C383.837 9.96 384.317 10.6 384.317 11.36C384.317 11.68 384.277 12.36 384.037 14.6C385.517 11.4 387.957 9.72 389.877 9.72C391.757 9.72 392.837 11.08 392.837 12.64C392.837 14.28 391.837 15.28 390.677 15.28C389.797 15.28 389.237 14.8 388.837 14.28C388.557 13.96 388.197 13.68 387.757 13.68C386.557 13.68 384.117 15.92 383.597 20.4V20.36L382.597 28.6C382.437 29.76 381.597 30.24 380.037 30.24Z" fill="white"/>
</svg>
